<svg width="17" height="18" viewBox="0 0 17 18" fill="none" xmlns="http://www.w3.org/2000/svg">
<path d="M7.0371 9.96102C5.41236 8.33628 5.04934 6.71597 4.96523 6.06518C4.94309 5.88367 5.00507 5.70659 5.13346 5.5782L6.4483 4.26778C6.64309 4.07299 6.67408 3.77195 6.53241 3.54174L4.4384 0.292256C4.27903 0.0354848 3.95142 -0.0574841 3.67695 0.0797557L0.325644 1.66023C0.108717 1.76648 -0.0196688 2.00111 0.00246662 2.2446C0.17955 3.91362 0.905591 8.02196 4.94309 12.0595C8.98059 16.097 13.0845 16.823 14.7579 17.0001C15.0014 17.0267 15.2316 16.8983 15.3423 16.6769L16.9228 13.3212C17.0556 13.0511 16.967 12.7235 16.7103 12.5642L13.4652 10.4746C13.235 10.3285 12.934 10.3639 12.7392 10.5587L11.4199 11.8647C11.2915 11.9931 11.11 12.055 10.9329 12.0329C10.2822 11.9488 8.66184 11.5813 7.0371 9.96102Z" fill="#FFED00"/>
<path d="M13.4829 9.08433C13.1598 9.08433 12.8986 8.82313 12.8986 8.49996C12.8941 6.07391 10.9285 4.10386 8.50247 4.10386C8.17929 4.10386 7.91809 3.84266 7.91809 3.51949C7.91809 3.19631 8.17929 2.93511 8.50247 2.93511C11.5749 2.93954 14.0673 5.43199 14.0717 8.50438C14.0673 8.82313 13.8061 9.08433 13.4829 9.08433Z" fill="#FFED00"/>
<path d="M16.4136 9.08436C16.0905 9.08436 15.8293 8.82316 15.8293 8.49999C15.8204 4.45364 12.5444 1.1776 8.49802 1.17318C8.17485 1.17318 7.91365 0.911978 7.91365 0.588801C7.91365 0.261198 8.17485 0 8.49802 0C13.1907 0.00442708 16.9936 3.80729 16.998 8.49999C16.998 8.65493 16.936 8.80545 16.8254 8.91613C16.7191 9.02238 16.5686 9.08436 16.4136 9.08436Z" fill="#FFED00"/>
</svg>
