<svg width="12" height="17" viewBox="0 0 12 17" fill="none" xmlns="http://www.w3.org/2000/svg">
<path d="M5.99865 0C2.69156 0 0 2.65077 0 5.90773C0 10.0022 6.00675 16.9973 6.00675 16.9973C6.00675 16.9973 12 9.80012 12 5.90773C12 2.65077 9.30844 0 5.99865 0ZM7.81012 7.63857C7.31069 8.13043 6.65467 8.37504 5.99865 8.37504C5.34263 8.37504 4.68661 8.13043 4.18718 7.63857C3.1883 6.65483 3.1883 5.05693 4.18718 4.07319C4.67042 3.59728 5.31294 3.33406 5.99865 3.33406C6.68166 3.33406 7.32418 3.59728 7.81012 4.07319C8.809 5.05693 8.809 6.65483 7.81012 7.63857Z" fill="black"/>
</svg>
